<?xml version="1.0" encoding="UTF-8" standalone="no"?>
<!-- Created with Inkscape (http://www.inkscape.org/) -->

<svg
   width="297mm"
   height="210mm"
   viewBox="0 0 297 210"
   version="1.1"
   id="svg1"
   xml:space="preserve"
   inkscape:version="1.4 (86a8ad7, 2024-10-11)"
   sodipodi:docname="rotate_your_phone_horizontally.svg"
   xmlns:inkscape="http://www.inkscape.org/namespaces/inkscape"
   xmlns:sodipodi="http://sodipodi.sourceforge.net/DTD/sodipodi-0.dtd"
   xmlns="http://www.w3.org/2000/svg"
   xmlns:svg="http://www.w3.org/2000/svg"><sodipodi:namedview
     id="namedview1"
     pagecolor="#ffffff"
     bordercolor="#000000"
     borderopacity="0.25"
     inkscape:showpageshadow="2"
     inkscape:pageopacity="0.0"
     inkscape:pagecheckerboard="0"
     inkscape:deskcolor="#d1d1d1"
     inkscape:document-units="mm"
     inkscape:zoom="0.49323376"
     inkscape:cx="478.47495"
     inkscape:cy="317.29377"
     inkscape:window-width="1920"
     inkscape:window-height="1001"
     inkscape:window-x="-9"
     inkscape:window-y="-9"
     inkscape:window-maximized="1"
     inkscape:current-layer="layer1" /><defs
     id="defs1" /><g
     inkscape:label="Layer 1"
     inkscape:groupmode="layer"
     id="layer1"><path
       id="rect1"
       style="fill:#ff0004;stroke-linecap:round;stroke-linejoin:round;fill-opacity:1"
       d="m 32.96698,26.207186 c -9.141563,0 -16.61759,7.475509 -16.61759,16.617073 v 68.765831 c 0,9.14157 7.476027,16.61707 16.61759,16.61707 h 176.71686 c 9.14157,0 16.61501,-7.4755 16.61501,-16.61707 V 42.824259 c 0,-9.141564 -7.47344,-16.617073 -16.61501,-16.617073 z m 0,7.388696 h 176.71686 c 5.17622,0 9.22631,4.052156 9.22631,9.228377 v 68.765831 c 0,5.17622 -4.05009,9.22838 -9.22631,9.22838 H 32.96698 c -5.176221,0 -9.228894,-4.05216 -9.228894,-9.22838 v -6.73714 c 0,0 0.909146,-0.0335 1.365291,-0.0335 2.501428,0 4.515487,-2.01406 4.515487,-4.51548 V 55.653451 c 0,-2.501428 -2.014059,-4.51497 -4.515487,-4.51497 -0.458275,-0.0143 -1.365291,0.04192 -1.365291,0.04192 l 0,-8.356142 c 0,-5.176221 4.052673,-9.228377 9.228894,-9.228377 z"
       sodipodi:nodetypes="sssssssssssssssscsssscss" /><path
       style="fill:#b9b9b9;fill-opacity:1;stroke:#939393;stroke-width:4;stroke-linecap:round;stroke-linejoin:round;stroke-dasharray:none;stroke-opacity:1"
       d="m 177.29448,132.08748 c -8.47231,-3.9277 -20.59033,-7.3729 -30.67239,-7.27701 -10.08207,0.0959 -17.69964,3.75629 -19.17111,7.98812 -1.47147,4.23183 -0.19333,9.29431 5.04256,11.81318 5.2359,2.51887 16.22432,4.24583 23.77977,7.1009 5.6589,3.99301 11.63045,5.97841 18.81268,8.20134 7.18222,2.22293 22.66643,10.5083 39.10409,20.18231 16.43766,9.674 41.32877,16.48893 54.12423,11.05884 12.79547,-5.43009 25.3906,-27.62914 23.57965,-48.42203 -1.81093,-20.79288 -3.73842,-17.37128 -8.86228,-32.33073 -0.94748,-9.71809 -3.74689,-18.074611 -7.77299,-23.809346 -1.26573,-10.224831 -6.57416,-20.478486 -10.49019,-31.815969 0.0841,-9.54739 -3.20796,-14.532306 -9.9908,-19.155926 0,0 -15.75075,-14.203039 -23.86233,-18.660512 -2.82369,-1.55167 -27.32855,-13.3513433 -31.44451,-7.8848015 -3.55832,4.7259425 1.41734,13.0407175 6.1785,16.6370765 4.76115,3.596361 17.66969,9.247689 17.66969,9.247689 3.05993,7.267731 11.757,13.618993 16.51372,20.146747 -0.96179,9.137598 0.23379,20.587116 2.97247,29.724714 -5.00742,10.973409 -7.27601,24.783068 -7.67634,37.584238 0,0 -11.186,12.41846 -19.69323,14.19952 -8.50724,1.78104 -29.66887,-0.60065 -38.14119,-4.52835 z"
       id="path2"
       sodipodi:nodetypes="zzzzczzzzcccczszcccczz" /><text
       xml:space="preserve"
       style="font-style:normal;font-variant:normal;font-weight:500;font-stretch:normal;font-size:31.5072px;line-height:1em;font-family:Rubik;-inkscape-font-specification:'Rubik Medium';text-align:center;letter-spacing:0px;word-spacing:0.717846px;writing-mode:lr-tb;direction:ltr;text-anchor:middle;fill:#ff0004;fill-opacity:1;stroke:none;stroke-width:7.0016;stroke-linecap:round;stroke-linejoin:round;stroke-dasharray:none;stroke-opacity:1"
       x="122.87273"
       y="70.796043"
       id="text4"><tspan
         sodipodi:role="line"
         id="tspan4"
         style="font-style:normal;font-variant:normal;font-weight:500;font-stretch:normal;font-family:Rubik;-inkscape-font-specification:'Rubik Medium';stroke:none;stroke-width:7.0016"
         x="122.87273"
         y="70.796043">rotate your</tspan><tspan
         sodipodi:role="line"
         style="font-style:normal;font-variant:normal;font-weight:500;font-stretch:normal;font-family:Rubik;-inkscape-font-specification:'Rubik Medium';stroke:none;stroke-width:7.0016"
         x="122.87273"
         y="102.30322"
         id="tspan5">phone</tspan></text></g></svg>
