<?xml version="1.0" encoding="UTF-8" standalone="no"?>
<!-- Created with Inkscape (http://www.inkscape.org/) -->

<svg
   width="300"
   height="200"
   viewBox="0 0 79.375002 52.916666"
   version="1.1"
   id="svg1"
   xml:space="preserve"
   inkscape:version="1.4 (86a8ad7, 2024-10-11)"
   sodipodi:docname="rotate_your_phone.svg"
   xmlns:inkscape="http://www.inkscape.org/namespaces/inkscape"
   xmlns:sodipodi="http://sodipodi.sourceforge.net/DTD/sodipodi-0.dtd"
   xmlns="http://www.w3.org/2000/svg"
   xmlns:svg="http://www.w3.org/2000/svg"><sodipodi:namedview
     id="namedview1"
     pagecolor="#ffffff"
     bordercolor="#000000"
     borderopacity="0.25"
     inkscape:showpageshadow="2"
     inkscape:pageopacity="0.0"
     inkscape:pagecheckerboard="0"
     inkscape:deskcolor="#d1d1d1"
     inkscape:document-units="px"
     inkscape:zoom="2.7901515"
     inkscape:cx="126.87483"
     inkscape:cy="91.572088"
     inkscape:window-width="1920"
     inkscape:window-height="1001"
     inkscape:window-x="-9"
     inkscape:window-y="-9"
     inkscape:window-maximized="1"
     inkscape:current-layer="layer1" /><defs
     id="defs1" /><g
     inkscape:label="Layer 1"
     inkscape:groupmode="layer"
     id="layer1"><path
       style="fill:#ffffff;fill-opacity:1;stroke-width:0.279289;stroke-linecap:round;stroke-linejoin:round"
       d="m 5.5465258,5.7449085 c -2.5531364,0 -4.6411073,2.087826 -4.6411073,4.6409625 V 29.5914 c 0,2.553141 2.0879709,4.640963 4.6411073,4.640963 H 54.901573 c 2.553139,0 4.640387,-2.087822 4.640387,-4.640963 V 10.385871 c 0,-2.5531365 -2.087248,-4.6409625 -4.640387,-4.6409625 z"
       id="path7" /><path
       id="rect1"
       style="fill:#ff0004;fill-opacity:1;stroke-width:0.279289;stroke-linecap:round;stroke-linejoin:round"
       d="m 5.5465258,5.7449085 c -2.5531364,0 -4.6411073,2.087826 -4.6411073,4.6409625 V 29.5914 c 0,2.553141 2.0879709,4.640963 4.6411073,4.640963 H 54.901573 c 2.553139,0 4.640387,-2.087822 4.640387,-4.640963 V 10.385871 c 0,-2.5531365 -2.087248,-4.6409625 -4.640387,-4.6409625 z m 0,2.0635803 H 54.901573 c 1.445661,0 2.576806,1.1317219 2.576806,2.5773822 V 29.5914 c 0,1.44566 -1.131145,2.577384 -2.576806,2.577384 H 5.5465258 c -1.4456608,0 -2.577527,-1.131724 -2.577527,-2.577384 v -1.881608 c 0,0 0.2539143,-0.0094 0.3813105,-0.0094 0.698621,0 1.2611252,-0.562504 1.2611252,-1.261123 V 13.968922 c 0,-0.698622 -0.5625042,-1.260981 -1.2611252,-1.260981 -0.1279911,-0.004 -0.3813105,0.01171 -0.3813105,0.01171 V 10.38587 c 0,-1.4456605 1.1318662,-2.5773824 2.577527,-2.5773824 z"
       sodipodi:nodetypes="sssssssssssssssscsssscss" /><path
       style="opacity:0.794776;fill:#e3c1c1;fill-opacity:1;stroke:#cc9090;stroke-width:1.11716;stroke-linecap:round;stroke-linejoin:round;stroke-dasharray:none;stroke-opacity:1"
       d="m 45.855586,35.316094 c -2.366222,-1.096964 -5.750648,-2.059168 -8.566457,-2.032389 -2.815808,0.02678 -4.943311,1.049092 -5.354275,2.230993 -0.410965,1.181904 -0.054,2.595798 1.408329,3.299291 1.46233,0.70349 4.531272,1.185813 6.641426,1.983201 1.580468,1.115204 3.248255,1.669703 5.254172,2.290542 2.005914,0.620841 6.33048,2.934852 10.921334,5.636695 4.590856,2.701839 11.542665,4.605173 15.116295,3.088611 3.573629,-1.516564 7.09131,-7.716512 6.585533,-13.523734 -0.505775,-5.807218 -1.0441,-4.851604 -2.475137,-9.029612 -0.264622,-2.714154 -1.046465,-5.048037 -2.17091,-6.649685 -0.353504,-2.855681 -1.836088,-5.719412 -2.929792,-8.885845 0.0235,-2.666479 -0.895947,-4.0587106 -2.79032,-5.3500362 0,0 -4.399007,-3.9667501 -6.664482,-5.2116724 -0.788625,-0.4333642 -7.632559,-3.72888138 -8.7821,-2.20213731 -0.993799,1.31990301 0.395847,3.64212691 1.725585,4.64654981 1.329737,1.0044235 4.934949,2.5827763 4.934949,2.5827763 0.854604,2.0297958 3.283597,3.8036328 4.612097,5.6267618 -0.268617,2.552029 0.06529,5.749752 0.830178,8.30178 -1.398518,3.064751 -2.032109,6.921637 -2.143916,10.496861 0,0 -3.124127,3.468336 -5.500099,3.965766 -2.375977,0.497425 -8.286184,-0.167754 -10.65241,-1.264717 z"
       id="path2"
       sodipodi:nodetypes="zzzzczzzzcccczszcccczz" /><g
       id="text8"
       style="font-weight:500;font-size:7.39797px;line-height:1em;font-family:Rubik;-inkscape-font-specification:'Rubik Medium';text-align:center;letter-spacing:0px;word-spacing:0.168552px;text-anchor:middle;fill:#ff0004;stroke-width:1.644;stroke-linecap:round;stroke-linejoin:round"
       aria-label="ROTATE YOUR&#10;PHONE"><path
         d="m 6.7930887,18.878942 q -0.07398,0 -0.1257655,-0.05178 -0.051786,-0.05179 -0.051786,-0.125766 v -4.816078 q 0,-0.08138 0.044388,-0.133164 0.051786,-0.05179 0.1331634,-0.05179 H 8.709163 q 0.9099503,0 1.42041,0.421685 0.517858,0.421684 0.517858,1.198471 0,0.540052 -0.258929,0.90995 -0.258929,0.362501 -0.7250008,0.525256 l 1.0727058,1.886482 q 0.02219,0.04439 0.02219,0.08138 0,0.06658 -0.05179,0.11097 -0.04439,0.04439 -0.103572,0.04439 H 9.9224301 q -0.1183675,0 -0.1849492,-0.05178 -0.066582,-0.05918 -0.1183676,-0.14796 L 8.6721732,16.925878 h -1.013522 v 1.775513 q 0,0.07398 -0.051786,0.125766 -0.051786,0.05178 -0.1331634,0.05178 z M 8.6869691,16.08251 q 0.4438782,0 0.6658173,-0.192347 0.2219391,-0.199746 0.2219391,-0.577042 0,-0.377297 -0.2219391,-0.577042 Q 9.1308473,14.528936 8.6869691,14.528936 H 7.6586512 v 1.553574 z m 4.8974489,2.870412 q -1.013522,0 -1.575768,-0.51046 -0.562246,-0.51046 -0.591837,-1.516584 -0.0074,-0.214541 -0.0074,-0.628827 0,-0.421684 0.0074,-0.636226 0.02959,-0.98393 0.606633,-1.509185 0.577042,-0.525256 1.560972,-0.525256 0.976532,0 1.553574,0.525256 0.584439,0.525255 0.614031,1.509185 0.0148,0.429083 0.0148,0.636226 0,0.199745 -0.0148,0.628827 -0.02959,1.006124 -0.599236,1.516584 -0.562245,0.51046 -1.568369,0.51046 z m 0,-0.858164 q 0.495664,0 0.784185,-0.295919 0.28852,-0.295919 0.310714,-0.90995 0.0148,-0.443879 0.0148,-0.599236 0,-0.170153 -0.0148,-0.599236 -0.02219,-0.606633 -0.318112,-0.902552 -0.295919,-0.303317 -0.776787,-0.303317 -0.488266,0 -0.784185,0.303317 -0.295919,0.295919 -0.310715,0.902552 -0.0074,0.214541 -0.0074,0.599236 0,0.377296 0.0074,0.599236 0.0148,0.606633 0.303317,0.90995 0.295919,0.295919 0.791583,0.295919 z m 4.364796,0.784184 q -0.07398,0 -0.125765,-0.05178 -0.05179,-0.05179 -0.05179,-0.125766 V 14.62511 h -1.368625 q -0.07398,0 -0.125765,-0.05179 -0.05179,-0.05179 -0.05179,-0.133164 v -0.554847 q 0,-0.08138 0.04439,-0.133164 0.05179,-0.05179 0.133163,-0.05179 h 3.780363 q 0.08138,0 0.133164,0.05179 0.05178,0.05179 0.05178,0.133164 v 0.554847 q 0,0.08138 -0.05178,0.133164 -0.05179,0.05179 -0.133164,0.05179 h -1.361226 v 4.076281 q 0,0.07398 -0.05179,0.125766 -0.04439,0.05178 -0.125766,0.05178 z m 2.308174,0 q -0.06658,0 -0.11097,-0.04439 -0.04439,-0.04439 -0.04439,-0.11097 l 0.0148,-0.06658 1.775513,-4.77169 q 0.07398,-0.18495 0.266327,-0.18495 h 0.813777 q 0.192347,0 0.266327,0.18495 l 1.775512,4.77169 0.0148,0.06658 q 0,0.06658 -0.05178,0.11097 -0.04439,0.04439 -0.103572,0.04439 h -0.658419 q -0.155358,0 -0.214542,-0.140561 l -0.340306,-0.895154 h -2.189799 l -0.340307,0.895154 q -0.05918,0.140561 -0.214541,0.140561 z m 1.472196,-1.89388 h 1.671941 l -0.835971,-2.278575 z m 4.756896,1.89388 q -0.07398,0 -0.125766,-0.05178 -0.05179,-0.05179 -0.05179,-0.125766 V 14.62511 h -1.368625 q -0.07398,0 -0.125765,-0.05179 -0.05179,-0.05179 -0.05179,-0.133164 v -0.554847 q 0,-0.08138 0.04439,-0.133164 0.05179,-0.05179 0.133163,-0.05179 h 3.780363 q 0.08138,0 0.133163,0.05179 0.05179,0.05179 0.05179,0.133164 v 0.554847 q 0,0.08138 -0.05179,0.133164 -0.05178,0.05179 -0.133163,0.05179 H 27.35944 v 4.076281 q 0,0.07398 -0.05178,0.125766 -0.04439,0.05178 -0.125766,0.05178 z m 3.34389,0 q -0.07398,0 -0.125766,-0.05178 -0.05179,-0.05179 -0.05179,-0.125766 v -4.816078 q 0,-0.08138 0.04439,-0.133164 0.05179,-0.05179 0.133164,-0.05179 h 3.262505 q 0.08138,0 0.133163,0.05179 0.05179,0.05179 0.05179,0.133164 v 0.495664 q 0,0.08138 -0.05179,0.133163 -0.05179,0.04439 -0.133163,0.04439 H 30.66634 v 1.294645 h 2.263779 q 0.08138,0 0.133164,0.05179 0.05179,0.05179 0.05179,0.133164 v 0.466072 q 0,0.08138 -0.05179,0.133164 -0.05179,0.04439 -0.133164,0.04439 H 30.66634 v 1.339033 h 2.485718 q 0.08138,0 0.133164,0.05179 0.05179,0.04439 0.05179,0.125765 v 0.503062 q 0,0.08138 -0.05179,0.133164 -0.05179,0.04439 -0.133164,0.04439 z m 7.610913,0 q -0.07398,0 -0.125765,-0.05178 -0.05179,-0.05179 -0.05179,-0.125766 v -1.664543 l -1.753319,-3.09975 q -0.02219,-0.06658 -0.02219,-0.08138 0,-0.06658 0.04439,-0.11097 0.05179,-0.04439 0.11097,-0.04439 h 0.665817 q 0.140561,0 0.229337,0.140562 l 1.242859,2.145411 1.250257,-2.145411 q 0.02959,-0.05179 0.08138,-0.09617 0.05918,-0.04439 0.140561,-0.04439 h 0.665817 q 0.06658,0 0.11097,0.04439 0.04439,0.04439 0.04439,0.11097 0,0.04439 -0.02219,0.08138 l -1.745921,3.09975 v 1.664543 q 0,0.08138 -0.05179,0.133164 -0.05179,0.04439 -0.133163,0.04439 z m 5.148994,0.07398 q -1.013522,0 -1.575768,-0.51046 -0.562246,-0.51046 -0.591838,-1.516584 -0.0074,-0.214541 -0.0074,-0.628827 0,-0.421684 0.0074,-0.636226 0.02959,-0.98393 0.606634,-1.509185 0.577042,-0.525256 1.560972,-0.525256 0.976532,0 1.553573,0.525256 0.58444,0.525255 0.614032,1.509185 0.0148,0.429083 0.0148,0.636226 0,0.199745 -0.0148,0.628827 -0.02959,1.006124 -0.599236,1.516584 -0.562245,0.51046 -1.568369,0.51046 z m 0,-0.858164 q 0.495664,0 0.784185,-0.295919 0.28852,-0.295919 0.310714,-0.90995 0.0148,-0.443879 0.0148,-0.599236 0,-0.170153 -0.0148,-0.599236 -0.02219,-0.606633 -0.318112,-0.902552 -0.295919,-0.303317 -0.776787,-0.303317 -0.488266,0 -0.784185,0.303317 -0.295919,0.295919 -0.310715,0.902552 -0.0074,0.214541 -0.0074,0.599236 0,0.377296 0.0074,0.599236 0.0148,0.606633 0.303317,0.90995 0.295919,0.295919 0.791583,0.295919 z m 5.215566,0.858164 q -1.006124,0 -1.560972,-0.51046 -0.554848,-0.51046 -0.554848,-1.546176 v -3.010973 q 0,-0.08138 0.04439,-0.133164 0.05179,-0.05179 0.133164,-0.05179 h 0.680613 q 0.08138,0 0.133163,0.05179 0.05179,0.05179 0.05179,0.133164 v 3.010973 q 0,0.58444 0.273725,0.880359 0.281123,0.295919 0.791583,0.295919 0.51046,0 0.784185,-0.295919 0.281122,-0.295919 0.281122,-0.880359 v -3.010973 q 0,-0.08138 0.05179,-0.133164 0.05179,-0.05179 0.133164,-0.05179 h 0.680613 q 0.08138,0 0.125765,0.05179 0.05179,0.05179 0.05179,0.133164 v 3.010973 q 0,1.035716 -0.554848,1.546176 -0.547449,0.51046 -1.546175,0.51046 z m 3.388277,-0.07398 q -0.07398,0 -0.125765,-0.05178 -0.05179,-0.05179 -0.05179,-0.125766 v -4.816078 q 0,-0.08138 0.04439,-0.133164 0.05179,-0.05179 0.133163,-0.05179 h 1.916075 q 0.90995,0 1.42041,0.421685 0.517858,0.421684 0.517858,1.198471 0,0.540052 -0.258929,0.90995 -0.258929,0.362501 -0.725001,0.525256 l 1.072705,1.886482 q 0.02219,0.04439 0.02219,0.08138 0,0.06658 -0.05179,0.11097 -0.04439,0.04439 -0.103571,0.04439 h -0.680613 q -0.118368,0 -0.18495,-0.05178 -0.06658,-0.05918 -0.118367,-0.14796 l -0.94694,-1.753319 h -1.013522 v 1.775513 q 0,0.07398 -0.05179,0.125766 -0.05179,0.05178 -0.133164,0.05178 z m 1.893881,-2.796432 q 0.443878,0 0.665817,-0.192347 0.221939,-0.199746 0.221939,-0.577042 0,-0.377297 -0.221939,-0.577042 -0.221939,-0.207143 -0.665817,-0.207143 h -1.028318 v 1.553574 z"
         id="path10" /><path
         d="m 18.854689,26.276913 q -0.07398,0 -0.125766,-0.05179 -0.05179,-0.05179 -0.05179,-0.125766 v -4.816078 q 0,-0.08138 0.04439,-0.133164 0.05179,-0.05178 0.133164,-0.05178 h 1.982656 q 0.895154,0 1.405614,0.421684 0.51046,0.421684 0.51046,1.228063 0,0.798981 -0.51046,1.213267 -0.51046,0.406888 -1.405614,0.406888 h -1.087502 v 1.731125 q 0,0.08138 -0.05179,0.133164 -0.05178,0.04439 -0.133163,0.04439 z m 1.945666,-2.737249 q 0.429082,0 0.651021,-0.199745 0.229337,-0.207144 0.229337,-0.599236 0,-0.384695 -0.221939,-0.599236 -0.214541,-0.214541 -0.658419,-0.214541 h -1.065308 v 1.612758 z m 2.936993,2.737249 q -0.07398,0 -0.125765,-0.05179 -0.05179,-0.05179 -0.05179,-0.125766 v -4.816078 q 0,-0.08138 0.04439,-0.133164 0.05179,-0.05178 0.133163,-0.05178 h 0.680613 q 0.08138,0 0.133164,0.05178 0.05179,0.05179 0.05179,0.133164 v 1.901278 h 2.160207 v -1.901278 q 0,-0.08138 0.05179,-0.133164 0.05179,-0.05178 0.125765,-0.05178 h 0.688012 q 0.08138,0 0.125765,0.05178 0.05179,0.05179 0.05179,0.133164 v 4.816078 q 0,0.07398 -0.05179,0.125766 -0.04439,0.05179 -0.125765,0.05179 h -0.688012 q -0.07398,0 -0.125765,-0.05179 -0.05179,-0.05179 -0.05179,-0.125766 v -1.975258 h -2.160207 v 1.975258 q 0,0.07398 -0.05179,0.125766 -0.05179,0.05179 -0.133164,0.05179 z m 7.220416,0.07398 q -1.013522,0 -1.575768,-0.51046 -0.562245,-0.510459 -0.591837,-1.516583 -0.0074,-0.214542 -0.0074,-0.628828 0,-0.421684 0.0074,-0.636225 0.02959,-0.98393 0.606633,-1.509186 0.577042,-0.525256 1.560972,-0.525256 0.976532,0 1.553574,0.525256 0.584439,0.525256 0.614031,1.509186 0.0148,0.429082 0.0148,0.636225 0,0.199745 -0.0148,0.628828 -0.02959,1.006124 -0.599235,1.516583 -0.562246,0.51046 -1.56837,0.51046 z m 0,-0.858164 q 0.495664,0 0.784185,-0.295919 0.288521,-0.295919 0.310715,-0.90995 0.01479,-0.443879 0.01479,-0.599236 0,-0.170153 -0.01479,-0.599235 -0.02219,-0.606634 -0.318113,-0.902553 -0.295919,-0.303317 -0.776787,-0.303317 -0.488266,0 -0.784185,0.303317 -0.295919,0.295919 -0.310715,0.902553 -0.0074,0.214541 -0.0074,0.599235 0,0.377297 0.0074,0.599236 0.0148,0.606633 0.303317,0.90995 0.295919,0.295919 0.791583,0.295919 z m 3.321687,0.784185 q -0.07398,0 -0.125766,-0.05179 -0.05179,-0.05179 -0.05179,-0.125766 v -4.816078 q 0,-0.08138 0.04439,-0.133164 0.05179,-0.05178 0.133164,-0.05178 h 0.577041 q 0.140562,0 0.214541,0.125765 l 2.11582,3.284699 v -3.225515 q 0,-0.08138 0.04439,-0.133164 0.05179,-0.05178 0.133163,-0.05178 h 0.636226 q 0.08138,0 0.133163,0.05178 0.05179,0.05179 0.05179,0.133164 v 4.80868 q 0,0.08138 -0.05179,0.133164 -0.05179,0.05179 -0.125765,0.05179 h -0.58444 q -0.14796,0 -0.221939,-0.125766 l -2.108422,-3.210719 v 3.158933 q 0,0.07398 -0.05179,0.125766 -0.04439,0.05179 -0.125765,0.05179 z m 5.23037,0 q -0.07398,0 -0.125765,-0.05179 -0.05179,-0.05179 -0.05179,-0.125766 v -4.816078 q 0,-0.08138 0.04439,-0.133164 0.05179,-0.05178 0.133163,-0.05178 h 3.262505 q 0.08138,0 0.133163,0.05178 0.05179,0.05179 0.05179,0.133164 v 0.495664 q 0,0.08138 -0.05179,0.133163 -0.05179,0.04439 -0.133163,0.04439 h -2.426534 v 1.294645 h 2.263779 q 0.08138,0 0.133163,0.05179 0.05179,0.05179 0.05179,0.133163 v 0.466072 q 0,0.08138 -0.05179,0.133164 -0.05179,0.04439 -0.133163,0.04439 h -2.263779 v 1.339032 h 2.485718 q 0.08138,0 0.133163,0.05179 0.05179,0.04439 0.05179,0.125765 v 0.503062 q 0,0.08138 -0.05179,0.133164 -0.05179,0.04439 -0.133163,0.04439 z"
         id="path11" /></g></g></svg>
