<?xml version="1.0" encoding="UTF-8" standalone="no"?>
<svg
   width="62"
   height="62"
   viewBox="0 0 16.404167 16.404167"
   version="1.1"
   id="svg2719"
   sodipodi:docname="top_view.svg"
   inkscape:version="1.4 (86a8ad7, 2024-10-11)"
   xml:space="preserve"
   xmlns:inkscape="http://www.inkscape.org/namespaces/inkscape"
   xmlns:sodipodi="http://sodipodi.sourceforge.net/DTD/sodipodi-0.dtd"
   xmlns:xlink="http://www.w3.org/1999/xlink"
   xmlns="http://www.w3.org/2000/svg"
   xmlns:svg="http://www.w3.org/2000/svg"
   xmlns:rdf="http://www.w3.org/1999/02/22-rdf-syntax-ns#"
   xmlns:cc="http://creativecommons.org/ns#"
   xmlns:dc="http://purl.org/dc/elements/1.1/"><sodipodi:namedview
     id="namedview1"
     pagecolor="#ffffff"
     bordercolor="#000000"
     borderopacity="0.25"
     inkscape:showpageshadow="2"
     inkscape:pageopacity="0.0"
     inkscape:pagecheckerboard="0"
     inkscape:deskcolor="#d1d1d1"
     inkscape:zoom="8.9300744"
     inkscape:cx="51.343357"
     inkscape:cy="43.952601"
     inkscape:window-width="1920"
     inkscape:window-height="1001"
     inkscape:window-x="-9"
     inkscape:window-y="-9"
     inkscape:window-maximized="1"
     inkscape:current-layer="svg2719" /><defs
     id="defs2713"><linearGradient
       id="linearGradient32"><stop
         style="stop-color:#414141;stop-opacity:1;"
         offset="0"
         id="stop31" /><stop
         style="stop-color:#767676;stop-opacity:1"
         offset="1"
         id="stop32" /></linearGradient><linearGradient
       id="linearGradient11"><stop
         style="stop-color:#da7c0f;stop-opacity:1;"
         offset="0"
         id="stop10" /><stop
         style="stop-color:#ffa337;stop-opacity:1;"
         offset="1"
         id="stop11" /></linearGradient><linearGradient
       gradientTransform="rotate(-90,-219.39462,730.26649)"
       xlink:href="#linearGradient2768"
       id="linearGradient2673"
       x1="501.88306"
       y1="942.95502"
       x2="508.08038"
       y2="935.61182"
       gradientUnits="userSpaceOnUse" /><linearGradient
       id="linearGradient2768"><stop
         style="stop-color:#414141;stop-opacity:1"
         offset="0"
         id="stop2764" /><stop
         style="stop-color:#767676;stop-opacity:1"
         offset="1"
         id="stop2766" /></linearGradient><linearGradient
       gradientTransform="matrix(1.0113992,0,0,1,-499.68938,-933.19295)"
       xlink:href="#linearGradient2648"
       id="linearGradient2665"
       x1="495.62714"
       y1="948.00964"
       x2="508.85629"
       y2="934.78046"
       gradientUnits="userSpaceOnUse" /><linearGradient
       id="linearGradient2648"><stop
         style="stop-color:#ebebeb;stop-opacity:1"
         offset="0"
         id="stop2644" /><stop
         style="stop-color:#ffffff;stop-opacity:1"
         offset="1"
         id="stop2646" /></linearGradient><filter
       style="color-interpolation-filters:sRGB"
       id="filter2688"
       x="-0.028284607"
       width="1.0565692"
       y="-0.028284607"
       height="1.0565692"><feGaussianBlur
         stdDeviation="0.15590908"
         id="feGaussianBlur2690" /></filter><filter
       style="color-interpolation-filters:sRGB"
       id="filter2688-1"
       x="-0.12"
       width="1.24"
       y="-0.12"
       height="1.24"><feGaussianBlur
         stdDeviation="0.66145835"
         id="feGaussianBlur2690-1" /></filter><linearGradient
       gradientTransform="translate(-493.24109,-653.06985)"
       xlink:href="#linearGradient2648"
       id="linearGradient2665-5"
       x1="495.62714"
       y1="948.00964"
       x2="508.85629"
       y2="934.78046"
       gradientUnits="userSpaceOnUse" /><linearGradient
       gradientTransform="rotate(180,255.67833,614.731)"
       xlink:href="#linearGradient2768"
       id="linearGradient2673-6"
       x1="501.88306"
       y1="942.95502"
       x2="508.08038"
       y2="935.61182"
       gradientUnits="userSpaceOnUse" /><linearGradient
       inkscape:collect="always"
       xlink:href="#linearGradient2768"
       id="linearGradient31"
       x1="-44.578075"
       y1="8.3848228"
       x2="-23.106195"
       y2="-2.162869"
       gradientUnits="userSpaceOnUse"
       gradientTransform="matrix(0.33422446,0,0,0.33422446,19.909054,10.121023)" /><linearGradient
       inkscape:collect="always"
       xlink:href="#linearGradient11"
       id="linearGradient33"
       gradientUnits="userSpaceOnUse"
       gradientTransform="matrix(0.36567904,0,0,0.36567904,21.560127,12.28532)"
       x1="-46.204243"
       y1="6.215035"
       x2="-19.929037"
       y2="-8.7854548" /></defs><metadata
     id="metadata2716"><rdf:RDF><cc:Work
         rdf:about=""><dc:format>image/svg+xml</dc:format><dc:type
           rdf:resource="http://purl.org/dc/dcmitype/StillImage" /></cc:Work></rdf:RDF></metadata><g
     id="layer1"
     transform="translate(1.6996652e-7,-280.59582)"><g
       id="g2754"
       transform="translate(-0.79853618,0.47271794)"><rect
         rx="0"
         ry="1.376092"
         y="281.7106"
         x="2.3860359"
         height="13.229167"
         width="13.229167"
         id="rect2614"
         style="display:inline;opacity:1;fill:#000000;fill-opacity:0.530055;fill-rule:nonzero;stroke:none;stroke-width:0.717843;stroke-linecap:round;stroke-linejoin:round;stroke-miterlimit:4;stroke-dasharray:none;stroke-dashoffset:0;stroke-opacity:1;paint-order:markers stroke fill;filter:url(#filter2688-1)" /><path
         id="rect2603"
         d="M 3.7621171,281.7106 H 14.2391 c 0.762355,0 1.376092,0.61374 1.376092,1.37609 v 10.47699 c 0,0.76235 -0.613737,1.37609 -1.376092,1.37609 H 3.7621171 c -0.7623549,0 -1.3760919,-0.61374 -1.3760919,-1.37609 v -10.47699 c 0,-0.76235 0.613737,-1.37609 1.3760919,-1.37609 z"
         style="display:inline;opacity:1;fill:url(#linearGradient2665-5);fill-opacity:1;fill-rule:nonzero;stroke:none;stroke-width:0.717843;stroke-linecap:round;stroke-linejoin:round;stroke-miterlimit:4;stroke-dasharray:none;stroke-dashoffset:0;stroke-opacity:1;paint-order:markers stroke fill" /></g></g><path
     id="rect30"
     style="fill:url(#linearGradient31);stroke-width:0.00858989;stroke-linecap:round;stroke-linejoin:round"
     d="M 4.5516602 7.8398317 C 4.0628824 7.8398317 3.7830694 8.2465379 3.6695435 8.7219484 L 2.6194784 13.120646 C 2.5369191 13.466378 2.7827945 13.774905 3.1109213 13.918014 L 5.7345338 9.5585899 C 5.7454848 9.5555099 5.7564317 9.5529684 5.7676067 9.5508384 C 5.8348807 9.4431995 5.9494973 9.37426 6.076115 9.36532 L 13.00024 9.36532 L 12.864848 8.7219484 C 12.764332 8.2436183 12.471508 7.8398317 11.982731 7.8398317 L 4.5516602 7.8398317 z M 6.3009075 10.160104 L 3.9878704 14.002763 L 12.907223 14.002763 C 13.396 14.002763 13.889855 13.598975 13.789339 13.120646 L 13.167155 10.160104 L 6.3009075 10.160104 z " /><path
     id="path29"
     style="fill:url(#linearGradient33);stroke-width:0.365679"
     d="m 8.2274636,2.7360731 c -0.4518929,0 -0.5452922,0.00888 -0.8087285,0.079664 C 6.1904183,3.1457552 5.2987673,4.0976588 5.1288027,5.2600534 5.0172461,6.0229917 5.3077548,7.0018708 5.9765392,8.1175242 6.5952988,9.1497274 7.3904367,10.258197 8.0703329,11.03598 c 0.07796,0.08918 0.1486147,0.162455 0.1571307,0.162624 0.018047,3.64e-4 0.3693769,-0.408143 0.6389614,-0.742799 C 9.5940315,9.5525712 10.585926,8.0351811 10.889895,7.3598905 11.285057,6.4820236 11.420507,5.773959 11.310741,5.1617092 11.210015,4.5998816 10.937522,4.0913323 10.504759,3.6574303 10.089134,3.240712 9.6232053,2.9737354 9.0389391,2.8168362 8.7724877,2.7452944 8.6804329,2.7360731 8.2274636,2.7360731 Z M 8.2532858,4.387044 C 8.6152503,4.3922527 8.9737124,4.5427751 9.2477141,4.8375586 9.4995335,5.108477 9.6222934,5.4232627 9.6196633,5.7940778 9.6168842,6.1914839 9.4949531,6.4758889 9.2021133,6.769277 8.996057,6.9757185 8.8104332,7.0818986 8.547219,7.1439731 8.3552371,7.189246 8.0387464,7.1848648 7.8637555,7.1346333 7.6115767,7.0622451 7.4529628,6.9674179 7.2528138,6.7681781 6.9602297,6.4769237 6.83862,6.1921738 6.8358132,5.7940778 6.8330355,5.3970397 6.959137,5.088821 7.2390786,4.8089893 7.5259043,4.5222763 7.8913211,4.3818355 8.2532858,4.387044 Z" /></svg>
